<svg width="10" height="210" viewBox="0 0 10 210" fill="none" xmlns="http://www.w3.org/2000/svg">
<rect y="210" width="10" height="10" transform="rotate(-90 0 210)" fill="#F7D7AC"/>
<rect y="190" width="10" height="10" transform="rotate(-90 0 190)" fill="#F7D7AC"/>
<rect y="170" width="10" height="10" transform="rotate(-90 0 170)" fill="#F7D7AC"/>
<rect y="150" width="10" height="10" transform="rotate(-90 0 150)" fill="#F7D7AC"/>
<rect y="130" width="10" height="10" transform="rotate(-90 0 130)" fill="#F7D7AC"/>
<rect y="110" width="10" height="9" transform="rotate(-90 0 110)" fill="#F7D7AC"/>
<rect y="90" width="10" height="10" transform="rotate(-90 0 90)" fill="#F7D7AC"/>
<rect y="70" width="10" height="10" transform="rotate(-90 0 70)" fill="#F7D7AC"/>
<rect y="50" width="10" height="10" transform="rotate(-90 0 50)" fill="#F7D7AC"/>
<rect y="30" width="10" height="10" transform="rotate(-90 0 30)" fill="#F7D7AC"/>
<rect y="10" width="10" height="10" transform="rotate(-90 0 10)" fill="#F7D7AC"/>
</svg>
