<?xml version="1.0" standalone="no"?>
<!DOCTYPE svg PUBLIC "-//W3C//DTD SVG 20010904//EN"
 "http://www.w3.org/TR/2001/REC-SVG-20010904/DTD/svg10.dtd">
<svg version="1.0" xmlns="http://www.w3.org/2000/svg"
 width="297.000000pt" height="120.000000pt" viewBox="0 0 297.000000 120.000000"
 preserveAspectRatio="xMidYMid meet">
<metadata>
Created by potrace 1.16, written by Peter Selinger 2001-2019
</metadata>
<g transform="translate(0.000000,120.000000) scale(0.100000,-0.100000)"
fill="#000000" stroke="none">
<path d="M71 1072 c-65 -205 -74 -250 -67 -317 8 -77 52 -167 108 -222 62 -61
281 -213 293 -204 5 4 64 47 131 94 137 98 186 147 220 222 50 109 45 172 -38
428 l-41 127 -283 0 -283 0 -40 -128z m372 -19 l42 -128 137 -5 137 -5 -104
-73 c-58 -41 -107 -77 -109 -81 -3 -4 13 -63 35 -131 21 -68 38 -128 36 -133
-1 -5 -29 11 -62 35 -33 24 -83 60 -110 80 l-51 36 -109 -79 c-61 -43 -111
-75 -113 -70 -1 4 15 64 37 131 22 68 38 126 36 129 -2 4 -51 40 -109 81
l-105 75 137 5 137 5 43 133 c24 74 46 132 49 129 2 -3 23 -63 46 -134z"/>
<path d="M2735 1074 c-6 -1 -27 -5 -48 -9 -45 -7 -101 -54 -127 -106 -31 -59
-43 -164 -30 -255 23 -168 123 -248 273 -220 53 10 112 68 138 134 29 74 32
231 5 307 -17 48 -63 107 -98 126 -20 11 -98 27 -113 23z m75 -109 c10 -9 24
-30 31 -46 10 -26 10 -32 -7 -44 -10 -7 -59 -42 -109 -78 l-90 -65 -3 66 c-4
84 18 146 62 173 35 23 87 20 116 -6z m48 -223 c-5 -106 -28 -154 -84 -172
-50 -17 -86 1 -115 55 -13 24 -21 46 -19 48 11 10 215 157 219 157 2 0 2 -40
-1 -88z"/>
<path d="M2080 780 l0 -290 49 0 50 0 3 149 c3 142 4 151 27 175 35 37 101 37
130 0 19 -24 21 -40 21 -175 l0 -149 50 0 50 0 0 165 c0 180 -6 204 -56 244
-57 45 -151 36 -198 -20 l-26 -31 0 111 0 111 -50 0 -50 0 0 -290z"/>
<path d="M1835 978 c0 -52 0 -53 -32 -56 -31 -3 -33 -5 -33 -43 0 -40 1 -40
33 -37 l32 3 5 -152 c5 -150 6 -153 32 -180 22 -22 39 -27 88 -31 l60 -4 0 41
c0 38 -2 41 -28 41 -48 0 -52 13 -52 155 l0 131 40 -4 40 -4 0 41 0 41 -40 0
-40 0 0 55 0 55 -52 0 -53 0 0 -52z"/>
<path d="M1023 919 c-37 -11 -103 -69 -103 -92 0 -14 28 -27 62 -27 9 0 28 11
42 25 19 19 35 25 70 25 52 0 76 -19 76 -60 0 -32 -4 -34 -102 -50 -90 -14
-110 -22 -142 -61 -25 -29 -28 -39 -23 -82 7 -73 46 -109 126 -115 49 -4 66 0
95 18 20 12 36 26 36 31 0 5 5 9 10 9 6 0 10 -11 10 -25 0 -23 4 -25 45 -25
l45 0 0 174 c0 163 -1 175 -22 201 -43 55 -141 78 -225 54z m154 -271 c-8 -59
-45 -93 -101 -93 -52 0 -76 18 -76 56 0 36 31 57 97 69 88 14 86 15 80 -32z"/>
<path d="M1340 743 c6 -198 11 -217 75 -247 62 -30 131 -15 173 39 26 33 32
32 32 -10 0 -35 0 -35 45 -35 l45 0 0 215 0 215 -50 0 -50 0 0 -146 0 -146
-29 -29 c-37 -36 -79 -38 -118 -5 l-28 24 -3 151 -3 151 -47 0 -47 0 5 -177z"/>
<path d="M2405 236 c-103 -45 -45 -205 65 -181 35 8 70 54 70 93 0 38 -27 79
-61 91 -39 13 -37 13 -74 -3z m87 -33 c29 -26 24 -87 -9 -112 -64 -51 -136 38
-87 107 18 27 69 30 96 5z"/>
<path d="M2000 145 c0 -57 4 -95 10 -95 6 0 10 4 10 10 0 6 9 5 24 -1 51 -24
92 39 64 98 -15 31 -50 42 -74 23 -12 -11 -14 -7 -14 24 0 20 -4 36 -10 36 -6
0 -10 -38 -10 -95z"/>
</g>
</svg>
