<svg width="330" height="30" viewBox="0 0 330 30" fill="none" xmlns="http://www.w3.org/2000/svg">
<rect y="10" width="10" height="10" fill="#F7D7AC"/>
<rect x="20" y="10" width="10" height="10" fill="#F7D7AC"/>
<rect x="40" y="10" width="10" height="9" fill="#F7D7AC"/>
<rect x="60" y="10" width="10" height="10" fill="#F7D7AC"/>
<rect x="80" y="10" width="10" height="10" fill="#F7D7AC"/>
<rect x="100" y="10" width="10" height="10" fill="#F7D7AC"/>
<rect x="120" y="10" width="10" height="10" fill="#F7D7AC"/>
<rect x="140" y="10" width="10" height="10" fill="#F7D7AC"/>
<rect x="160" y="10" width="10" height="10" fill="#F7D7AC"/>
<rect x="180" y="10" width="10" height="10" fill="#F7D7AC"/>
<rect x="200" y="10" width="10" height="10" fill="#F7D7AC"/>
<rect x="220" y="10" width="10" height="10" fill="#F7D7AC"/>
<rect x="240" y="10" width="10" height="10" fill="#F7D7AC"/>
<rect x="260" y="10" width="10" height="10" fill="#F7D7AC"/>
<rect x="280" y="10" width="10" height="9" fill="#F7D7AC"/>
<rect x="300" y="10" width="10" height="10" fill="#F7D7AC"/>
<rect x="320" y="10" width="10" height="10" fill="#F7D7AC"/>
<rect x="160" width="10" height="30" fill="#DA77D6"/>
<rect x="150" y="10" width="30" height="10" fill="#DA77D6"/>
</svg>
