<svg width="890" height="10" viewBox="0 0 890 10" fill="none" xmlns="http://www.w3.org/2000/svg">
<rect x="161" width="10" height="10" fill="#F7D7AC"/>
<rect x="181" width="10" height="10" fill="#F7D7AC"/>
<rect x="201" width="10" height="10" fill="#F7D7AC"/>
<rect x="221" width="10" height="10" fill="#F7D7AC"/>
<rect x="241" width="10" height="10" fill="#F7D7AC"/>
<rect x="261" width="10" height="10" fill="#F7D7AC"/>
<rect x="281" width="10" height="10" fill="#F7D7AC"/>
<rect x="301" width="10" height="10" fill="#F7D7AC"/>
<rect x="321" width="10" height="10" fill="#F7D7AC"/>
<rect x="341" width="10" height="10" fill="#F7D7AC"/>
<rect x="361" width="10" height="10" fill="#F7D7AC"/>
<rect x="601" width="10" height="10" fill="#F7D7AC"/>
<rect x="621" width="10" height="10" fill="#F7D7AC"/>
<rect x="641" width="10" height="10" fill="#F7D7AC"/>
<rect x="661" width="10" height="10" fill="#F7D7AC"/>
<rect x="681" width="10" height="10" fill="#F7D7AC"/>
<rect x="701" width="10" height="10" fill="#F7D7AC"/>
<rect x="721" width="10" height="10" fill="#F7D7AC"/>
<rect x="741" width="10" height="10" fill="#F7D7AC"/>
<rect x="761" width="10" height="10" fill="#F7D7AC"/>
<rect x="781" width="10" height="10" fill="#F7D7AC"/>
<rect x="801" width="10" height="10" fill="#F7D7AC"/>
<rect width="10" height="10" fill="#F7D7AC"/>
<rect x="20" width="10" height="10" fill="#F7D7AC"/>
<rect x="40" width="10" height="10" fill="#F7D7AC"/>
<rect x="60" width="10" height="10" fill="#F7D7AC"/>
<rect x="80" width="10" height="10" fill="#F7D7AC"/>
<rect x="100" width="10" height="10" fill="#F7D7AC"/>
<rect x="120" width="10" height="10" fill="#F7D7AC"/>
<rect x="140" width="10" height="10" fill="#F7D7AC"/>
<rect x="820" width="10" height="10" fill="#F7D7AC"/>
<rect x="840" width="10" height="10" fill="#F7D7AC"/>
<rect x="860" width="10" height="10" fill="#F7D7AC"/>
<rect x="880" width="10" height="10" fill="#F7D7AC"/>
<rect x="380" width="10" height="10" fill="#F7D7AC"/>
<rect x="400" width="10" height="10" fill="#F7D7AC"/>
<rect x="420" width="10" height="10" fill="#F7D7AC"/>
<rect x="440" width="10" height="10" fill="#F7D7AC"/>
<rect x="460" width="10" height="10" fill="#F7D7AC"/>
<rect x="480" width="10" height="10" fill="#F7D7AC"/>
<rect x="500" width="10" height="10" fill="#F7D7AC"/>
<rect x="520" width="10" height="10" fill="#F7D7AC"/>
<rect x="540" width="10" height="10" fill="#F7D7AC"/>
<rect x="560" width="10" height="10" fill="#F7D7AC"/>
<rect x="580" width="10" height="10" fill="#F7D7AC"/>
</svg>
