<svg width="1451" height="253" viewBox="0 0 1451 253" fill="none" xmlns="http://www.w3.org/2000/svg">
<rect y="232" width="10" height="10" transform="rotate(-90 0 232)" fill="#F7D7AC"/>
<rect y="212" width="10" height="10" transform="rotate(-90 0 212)" fill="#F7D7AC"/>
<rect y="192" width="10" height="10" transform="rotate(-90 0 192)" fill="#F7D7AC"/>
<rect y="172" width="10" height="10" transform="rotate(-90 0 172)" fill="#F7D7AC"/>
<rect y="152" width="10" height="10" transform="rotate(-90 0 152)" fill="#F7D7AC"/>
<rect y="132" width="10" height="9" transform="rotate(-90 0 132)" fill="#F7D7AC"/>
<rect y="112" width="10" height="10" transform="rotate(-90 0 112)" fill="#F7D7AC"/>
<rect y="92" width="10" height="10" transform="rotate(-90 0 92)" fill="#F7D7AC"/>
<rect y="72" width="10" height="10" transform="rotate(-90 0 72)" fill="#F7D7AC"/>
<rect y="52" width="10" height="10" transform="rotate(-90 0 52)" fill="#F7D7AC"/>
<rect y="32" width="10" height="10" transform="rotate(-90 0 32)" fill="#F7D7AC"/>
<rect x="1441" y="232" width="10" height="10" transform="rotate(-90 1441 232)" fill="#F7D7AC"/>
<rect x="1441" y="212" width="10" height="10" transform="rotate(-90 1441 212)" fill="#F7D7AC"/>
<rect x="1441" y="192" width="10" height="10" transform="rotate(-90 1441 192)" fill="#F7D7AC"/>
<rect x="1441" y="172" width="10" height="10" transform="rotate(-90 1441 172)" fill="#F7D7AC"/>
<rect x="1441" y="152" width="10" height="10" transform="rotate(-90 1441 152)" fill="#F7D7AC"/>
<rect x="1441" y="132" width="10" height="9" transform="rotate(-90 1441 132)" fill="#F7D7AC"/>
<rect x="1441" y="112" width="10" height="10" transform="rotate(-90 1441 112)" fill="#F7D7AC"/>
<rect x="1441" y="92" width="10" height="10" transform="rotate(-90 1441 92)" fill="#F7D7AC"/>
<rect x="1441" y="72" width="10" height="10" transform="rotate(-90 1441 72)" fill="#F7D7AC"/>
<rect x="1441" y="52" width="10" height="10" transform="rotate(-90 1441 52)" fill="#F7D7AC"/>
<rect x="1441" y="32" width="10" height="10" transform="rotate(-90 1441 32)" fill="#F7D7AC"/>
<rect width="10" height="10" fill="#F7D7AC"/>
<rect x="20" width="10" height="10" fill="#F7D7AC"/>
<rect x="40" width="10" height="10" fill="#F7D7AC"/>
<rect x="60" width="10" height="10" fill="#F7D7AC"/>
<rect x="80" width="10" height="10" fill="#F7D7AC"/>
<rect x="100" width="10" height="10" fill="#F7D7AC"/>
<rect x="120" width="10" height="10" fill="#F7D7AC"/>
<rect x="140" width="10" height="10" fill="#F7D7AC"/>
<rect x="160" width="10" height="10" fill="#F7D7AC"/>
<rect x="180" width="10" height="10" fill="#F7D7AC"/>
<rect x="200" width="10" height="10" fill="#F7D7AC"/>
<rect x="880" width="10" height="10" fill="#F7D7AC"/>
<rect x="900" width="10" height="10" fill="#F7D7AC"/>
<rect x="920" width="10" height="10" fill="#F7D7AC"/>
<rect x="940" width="10" height="10" fill="#F7D7AC"/>
<rect x="960" width="10" height="10" fill="#F7D7AC"/>
<rect x="980" width="10" height="10" fill="#F7D7AC"/>
<rect x="1000" width="10" height="10" fill="#F7D7AC"/>
<rect x="1020" width="10" height="10" fill="#F7D7AC"/>
<rect x="1040" width="10" height="10" fill="#F7D7AC"/>
<rect x="1060" width="10" height="10" fill="#F7D7AC"/>
<rect x="1080" width="10" height="10" fill="#F7D7AC"/>
<rect x="440" width="10" height="10" fill="#F7D7AC"/>
<rect x="460" width="10" height="10" fill="#F7D7AC"/>
<rect x="480" width="10" height="10" fill="#F7D7AC"/>
<rect x="500" width="10" height="10" fill="#F7D7AC"/>
<rect x="520" width="10" height="10" fill="#F7D7AC"/>
<rect x="540" width="10" height="10" fill="#F7D7AC"/>
<rect x="560" width="10" height="10" fill="#F7D7AC"/>
<rect x="580" width="10" height="10" fill="#F7D7AC"/>
<rect x="600" width="10" height="10" fill="#F7D7AC"/>
<rect x="620" width="10" height="10" fill="#F7D7AC"/>
<rect x="640" width="10" height="10" fill="#F7D7AC"/>
<rect x="1320" width="10" height="10" fill="#F7D7AC"/>
<rect x="1340" width="10" height="10" fill="#F7D7AC"/>
<rect x="1360" width="10" height="10" fill="#F7D7AC"/>
<rect x="1380" width="10" height="10" fill="#F7D7AC"/>
<rect x="1400" width="10" height="10" fill="#F7D7AC"/>
<rect x="1420" width="10" height="10" fill="#F7D7AC"/>
<rect x="1440" width="10" height="10" fill="#F7D7AC"/>
<rect x="219" width="10" height="10" fill="#F7D7AC"/>
<rect x="239" width="10" height="10" fill="#F7D7AC"/>
<rect x="259" width="10" height="10" fill="#F7D7AC"/>
<rect x="279" width="10" height="10" fill="#F7D7AC"/>
<rect x="299" width="10" height="10" fill="#F7D7AC"/>
<rect x="319" width="10" height="10" fill="#F7D7AC"/>
<rect x="339" width="10" height="10" fill="#F7D7AC"/>
<rect x="359" width="10" height="10" fill="#F7D7AC"/>
<rect x="379" width="10" height="10" fill="#F7D7AC"/>
<rect x="399" width="10" height="10" fill="#F7D7AC"/>
<rect x="419" width="10" height="10" fill="#F7D7AC"/>
<rect x="1099" width="10" height="10" fill="#F7D7AC"/>
<rect x="1119" width="10" height="10" fill="#F7D7AC"/>
<rect x="1139" width="10" height="10" fill="#F7D7AC"/>
<rect x="1159" width="10" height="10" fill="#F7D7AC"/>
<rect x="1179" width="10" height="10" fill="#F7D7AC"/>
<rect x="1199" width="10" height="10" fill="#F7D7AC"/>
<rect x="1219" width="10" height="10" fill="#F7D7AC"/>
<rect x="1239" width="10" height="10" fill="#F7D7AC"/>
<rect x="1259" width="10" height="10" fill="#F7D7AC"/>
<rect x="1279" width="10" height="10" fill="#F7D7AC"/>
<rect x="1299" width="10" height="10" fill="#F7D7AC"/>
<rect x="659" width="10" height="10" fill="#F7D7AC"/>
<rect x="679" width="10" height="10" fill="#F7D7AC"/>
<rect x="699" width="10" height="10" fill="#F7D7AC"/>
<rect x="719" width="10" height="10" fill="#F7D7AC"/>
<rect x="739" width="10" height="10" fill="#F7D7AC"/>
<rect x="759" width="10" height="10" fill="#F7D7AC"/>
<rect x="779" width="10" height="10" fill="#F7D7AC"/>
<rect x="799" width="10" height="10" fill="#F7D7AC"/>
<rect x="819" width="10" height="10" fill="#F7D7AC"/>
<rect x="839" width="10" height="10" fill="#F7D7AC"/>
<rect x="859" width="10" height="10" fill="#F7D7AC"/>
<rect x="1" y="243" width="10" height="10" fill="#F7D7AC"/>
<rect x="21" y="243" width="10" height="10" fill="#F7D7AC"/>
<rect x="41" y="243" width="10" height="10" fill="#F7D7AC"/>
<rect x="61" y="243" width="10" height="10" fill="#F7D7AC"/>
<rect x="81" y="243" width="10" height="10" fill="#F7D7AC"/>
<rect x="101" y="243" width="10" height="10" fill="#F7D7AC"/>
<rect x="121" y="243" width="10" height="10" fill="#F7D7AC"/>
<rect x="141" y="243" width="10" height="10" fill="#F7D7AC"/>
<rect x="161" y="243" width="10" height="10" fill="#F7D7AC"/>
<rect x="181" y="243" width="10" height="10" fill="#F7D7AC"/>
<rect x="201" y="243" width="10" height="10" fill="#F7D7AC"/>
<rect x="881" y="243" width="10" height="10" fill="#F7D7AC"/>
<rect x="901" y="243" width="10" height="10" fill="#F7D7AC"/>
<rect x="921" y="243" width="10" height="10" fill="#F7D7AC"/>
<rect x="941" y="243" width="10" height="10" fill="#F7D7AC"/>
<rect x="961" y="243" width="10" height="10" fill="#F7D7AC"/>
<rect x="981" y="243" width="10" height="10" fill="#F7D7AC"/>
<rect x="1001" y="243" width="10" height="10" fill="#F7D7AC"/>
<rect x="1021" y="243" width="10" height="10" fill="#F7D7AC"/>
<rect x="1041" y="243" width="10" height="10" fill="#F7D7AC"/>
<rect x="1061" y="243" width="10" height="10" fill="#F7D7AC"/>
<rect x="1081" y="243" width="10" height="10" fill="#F7D7AC"/>
<rect x="441" y="243" width="10" height="10" fill="#F7D7AC"/>
<rect x="461" y="243" width="10" height="10" fill="#F7D7AC"/>
<rect x="481" y="243" width="10" height="10" fill="#F7D7AC"/>
<rect x="501" y="243" width="10" height="10" fill="#F7D7AC"/>
<rect x="521" y="243" width="10" height="10" fill="#F7D7AC"/>
<rect x="541" y="243" width="10" height="10" fill="#F7D7AC"/>
<rect x="561" y="243" width="10" height="10" fill="#F7D7AC"/>
<rect x="581" y="243" width="10" height="10" fill="#F7D7AC"/>
<rect x="601" y="243" width="10" height="10" fill="#F7D7AC"/>
<rect x="621" y="243" width="10" height="10" fill="#F7D7AC"/>
<rect x="641" y="243" width="10" height="10" fill="#F7D7AC"/>
<rect x="1321" y="243" width="10" height="10" fill="#F7D7AC"/>
<rect x="1341" y="243" width="10" height="10" fill="#F7D7AC"/>
<rect x="1361" y="243" width="10" height="10" fill="#F7D7AC"/>
<rect x="1381" y="243" width="10" height="10" fill="#F7D7AC"/>
<rect x="1401" y="243" width="10" height="10" fill="#F7D7AC"/>
<rect x="1421" y="243" width="10" height="10" fill="#F7D7AC"/>
<rect x="1441" y="243" width="10" height="10" fill="#F7D7AC"/>
<rect x="220" y="243" width="10" height="10" fill="#F7D7AC"/>
<rect x="240" y="243" width="10" height="10" fill="#F7D7AC"/>
<rect x="260" y="243" width="10" height="10" fill="#F7D7AC"/>
<rect x="280" y="243" width="10" height="10" fill="#F7D7AC"/>
<rect x="300" y="243" width="10" height="10" fill="#F7D7AC"/>
<rect x="320" y="243" width="10" height="10" fill="#F7D7AC"/>
<rect x="340" y="243" width="10" height="10" fill="#F7D7AC"/>
<rect x="360" y="243" width="10" height="10" fill="#F7D7AC"/>
<rect x="380" y="243" width="10" height="10" fill="#F7D7AC"/>
<rect x="400" y="243" width="10" height="10" fill="#F7D7AC"/>
<rect x="420" y="243" width="10" height="10" fill="#F7D7AC"/>
<rect x="1100" y="243" width="10" height="10" fill="#F7D7AC"/>
<rect x="1120" y="243" width="10" height="10" fill="#F7D7AC"/>
<rect x="1140" y="243" width="10" height="10" fill="#F7D7AC"/>
<rect x="1160" y="243" width="10" height="10" fill="#F7D7AC"/>
<rect x="1180" y="243" width="10" height="10" fill="#F7D7AC"/>
<rect x="1200" y="243" width="10" height="10" fill="#F7D7AC"/>
<rect x="1220" y="243" width="10" height="10" fill="#F7D7AC"/>
<rect x="1240" y="243" width="10" height="10" fill="#F7D7AC"/>
<rect x="1260" y="243" width="10" height="10" fill="#F7D7AC"/>
<rect x="1280" y="243" width="10" height="10" fill="#F7D7AC"/>
<rect x="1300" y="243" width="10" height="10" fill="#F7D7AC"/>
<rect x="660" y="243" width="10" height="10" fill="#F7D7AC"/>
<rect x="680" y="243" width="10" height="10" fill="#F7D7AC"/>
<rect x="700" y="243" width="10" height="10" fill="#F7D7AC"/>
<rect x="720" y="243" width="10" height="10" fill="#F7D7AC"/>
<rect x="740" y="243" width="10" height="10" fill="#F7D7AC"/>
<rect x="760" y="243" width="10" height="10" fill="#F7D7AC"/>
<rect x="780" y="243" width="10" height="10" fill="#F7D7AC"/>
<rect x="800" y="243" width="10" height="10" fill="#F7D7AC"/>
<rect x="820" y="243" width="10" height="10" fill="#F7D7AC"/>
<rect x="840" y="243" width="10" height="10" fill="#F7D7AC"/>
<rect x="860" y="243" width="10" height="10" fill="#F7D7AC"/>
</svg>
