<svg width="823" height="272" viewBox="0 0 823 272" fill="none" xmlns="http://www.w3.org/2000/svg">
<path d="M524.151 64V205.71H551.945C553.049 205.71 553.945 204.814 553.945 203.71V88.6369H560.139C561.244 88.6369 562.139 87.7415 562.139 86.6369V66C562.139 64.8954 561.244 64 560.139 64H524.151Z" fill="#892DFF"/>
<path d="M43.9588 207.238C35.4282 207.238 27.0886 206.219 18.94 204.182C11.5853 202.228 5.57905 199.86 0.921103 197.077C0.0701931 196.568 -0.231264 195.495 0.186161 194.596L8.42755 176.845C8.93736 175.747 10.2969 175.352 11.3464 175.956C15.5239 178.358 20.4106 180.382 26.0064 182.028C32.4998 183.81 38.8659 184.702 45.1047 184.702C57.7096 184.702 64.0121 181.582 64.0121 175.343C64.0121 172.415 62.2932 170.314 58.8555 169.041C55.4178 167.768 50.134 166.686 43.0039 165.794C34.6006 164.521 27.6615 163.057 22.1867 161.402C16.7118 159.746 11.9372 156.818 7.86291 152.616C3.91592 148.415 1.94242 142.431 1.94242 134.664C1.94242 128.171 3.7886 122.441 7.48095 117.475C11.3006 112.383 16.7755 108.436 23.9055 105.634C31.1629 102.833 39.6935 101.433 49.4973 101.433C56.7547 101.433 63.9484 102.26 71.0785 103.916C77.5484 105.278 83.0065 107.146 87.4526 109.52C88.3599 110.004 88.6984 111.119 88.2621 112.05L80.0144 129.656C79.5207 130.71 78.2364 131.118 77.2031 130.583C68.6844 126.174 59.4491 123.969 49.4973 123.969C43.1312 123.969 38.3566 124.86 35.1736 126.643C31.9905 128.425 30.399 130.717 30.399 133.518C30.399 136.701 32.1178 138.929 35.5555 140.202C38.9932 141.476 44.4681 142.685 51.9801 143.831C60.3834 145.232 67.2588 146.76 72.6064 148.415C77.9539 149.943 82.6012 152.807 86.5482 157.009C90.4952 161.211 92.4687 167.068 92.4687 174.58C92.4687 180.946 90.5588 186.611 86.7392 191.577C82.9195 196.543 77.3173 200.426 69.9326 203.227C62.6752 205.901 54.0173 207.238 43.9588 207.238Z" fill="#892DFF"/>
<path fill-rule="evenodd" clip-rule="evenodd" d="M159.743 207.238C148.92 207.238 139.18 205.01 130.522 200.553C121.992 195.97 115.307 189.667 110.469 181.646C105.631 173.625 103.211 164.521 103.211 154.335C103.211 144.149 105.631 135.046 110.469 127.025C115.307 119.003 121.992 112.764 130.522 108.308C139.18 103.725 148.92 101.433 159.743 101.433C170.565 101.433 180.242 103.725 188.772 108.308C197.303 112.764 203.987 119.003 208.825 127.025C213.664 135.046 216.083 144.149 216.083 154.335C216.083 164.521 213.664 173.625 208.825 181.646C203.987 189.667 197.303 195.97 188.772 200.553C180.242 205.01 170.565 207.238 159.743 207.238ZM159.743 182.792C167.382 182.792 173.621 180.245 178.459 175.152C183.425 169.932 185.907 162.993 185.907 154.335C185.907 145.677 183.425 138.802 178.459 133.709C173.621 128.489 167.382 125.879 159.743 125.879C152.103 125.879 145.801 128.489 140.835 133.709C135.87 138.802 133.387 145.677 133.387 154.335C133.387 162.993 135.87 169.932 140.835 175.152C145.801 180.245 152.103 182.792 159.743 182.792Z" fill="#892DFF"/>
<path d="M256.051 200.553C264.836 205.01 274.703 207.238 285.653 207.238C296.475 207.238 305.897 204.946 313.919 200.362C321.5 196.098 327.153 190.29 330.877 182.939C331.35 182.005 330.969 180.876 330.049 180.375L310.315 169.61C309.35 169.084 308.146 169.439 307.563 170.371C302.378 178.652 295.011 182.792 285.462 182.792C277.695 182.792 271.266 180.245 266.173 175.152C261.08 170.06 258.533 163.12 258.533 154.335C258.533 145.55 261.08 138.611 266.173 133.518C271.266 128.425 277.695 125.879 285.462 125.879C294.906 125.879 302.273 130.031 307.564 138.337C308.148 139.253 309.335 139.601 310.292 139.087L330.052 128.472C330.971 127.978 331.361 126.858 330.901 125.921C327.178 118.335 321.517 112.463 313.919 108.308C305.897 103.725 296.475 101.433 285.653 101.433C274.703 101.433 264.836 103.725 256.051 108.308C247.393 112.764 240.581 119.003 235.615 127.025C230.777 135.046 228.358 144.149 228.358 154.335C228.358 164.521 230.777 173.625 235.615 181.646C240.581 189.667 247.393 195.97 256.051 200.553Z" fill="#892DFF"/>
<path fill-rule="evenodd" clip-rule="evenodd" d="M447.722 101.433C463.637 101.433 475.86 105.252 484.391 112.892C492.922 120.404 497.187 131.799 497.187 147.078V203.71C497.187 204.814 496.291 205.71 495.187 205.71H471.303C470.199 205.71 469.303 204.814 469.303 203.71V192.914C463.701 202.463 453.261 207.238 437.982 207.238C430.088 207.238 423.212 205.901 417.356 203.227C411.626 200.553 407.233 196.861 404.178 192.15C401.122 187.439 399.594 182.092 399.594 176.107C399.594 166.558 403.159 159.046 410.289 153.571C417.547 148.096 428.687 145.359 443.711 145.359H465.393C466.498 145.359 467.402 144.462 467.328 143.359C466.956 137.837 465.004 133.538 461.473 130.462C457.526 126.897 451.605 125.115 443.711 125.115C438.237 125.115 432.825 126.006 427.478 127.789C423.15 129.161 419.347 130.971 416.069 133.218C415.029 133.931 413.572 133.619 412.996 132.497L404.209 115.394C403.753 114.507 404.018 113.416 404.852 112.869C410.149 109.392 416.354 106.662 423.467 104.68C431.361 102.515 439.446 101.433 447.722 101.433ZM445.43 187.184C450.523 187.184 455.043 186.039 458.99 183.747C462.937 181.328 465.738 177.826 467.393 173.243V164.739C467.393 163.634 466.498 162.739 465.393 162.739H446.958C434.735 162.739 428.624 166.749 428.624 174.771C428.624 178.59 430.088 181.646 433.016 183.938C436.072 186.102 440.21 187.184 445.43 187.184Z" fill="#892DFF"/>
<path d="M376.447 102.961C377.552 102.961 378.447 103.856 378.447 104.961V203.71C378.447 204.814 377.552 205.71 376.447 205.71H350.654C349.549 205.71 348.654 204.814 348.654 203.71V127.598H342.46C341.355 127.598 340.46 126.702 340.46 125.598V104.961C340.46 103.856 341.355 102.961 342.46 102.961H376.447Z" fill="#892DFF"/>
<path d="M348.65 78.895C348.65 70.6687 355.319 64 363.545 64C371.771 64 378.44 70.6687 378.44 78.895C378.44 87.1213 371.771 93.79 363.545 93.79C355.319 93.79 348.65 87.1213 348.65 78.895Z" fill="#892DFF"/>
<path fill-rule="evenodd" clip-rule="evenodd" d="M706 271.15L589 203.6V68.5005L691.066 127.428V141.148C691.066 142.347 692.038 143.319 693.237 143.319H703.326C704.246 143.319 705.138 143.338 706 143.377L706 172.499C705.135 172.547 704.244 172.57 703.326 172.57C697.251 172.57 691.287 171.684 685.433 169.911C680.584 168.321 676.208 166.217 672.304 163.601C671.182 162.848 669.631 163.206 669.02 164.412L660.592 181.054C660.109 182.007 660.389 183.173 661.277 183.767C666.492 187.25 672.666 190 679.8 192.016C687.752 194.121 695.815 195.174 703.988 195.174C704.666 195.174 705.336 195.166 706 195.152L706 271.15Z" fill="url(#paint0_linear_20_254)"/>
<path fill-rule="evenodd" clip-rule="evenodd" d="M706 0.950684L823 68.5006L724.967 125.1C723.55 124.753 722.079 124.455 720.555 124.206L746.194 94.9042C746.541 94.5084 746.732 94.0003 746.732 93.4744V79.0105C746.732 77.8113 745.759 76.8392 744.56 76.8392H667.724C666.525 76.8392 665.552 77.8113 665.552 79.0105V96.2739C665.552 97.4731 666.525 98.4452 667.724 98.4452H710.117C711.986 98.4452 712.982 100.649 711.747 102.051L691.337 125.228C691.162 125.426 691.066 125.682 691.066 125.946V127.428L589 68.5006L706 0.950684Z" fill="url(#paint1_linear_20_254)"/>
<path fill-rule="evenodd" clip-rule="evenodd" d="M724.967 125.1L823 68.5005V203.6L706 271.15L706 195.152C715.615 194.945 723.78 193.234 730.496 190.021C737.785 186.587 743.197 182.044 746.732 176.393C750.266 170.631 752.033 164.371 752.033 157.612C752.033 148.859 749.327 141.546 743.915 135.674C739.315 130.588 732.999 127.063 724.967 125.1ZM706 143.377L706 172.499C711.481 172.199 715.891 170.949 719.23 168.748C723.096 166.089 725.029 162.377 725.029 157.612C725.029 148.69 718.686 143.945 706 143.377Z" fill="url(#paint2_linear_20_254)"/>
<defs>
<linearGradient id="paint0_linear_20_254" x1="573" y1="180" x2="708.462" y2="134.231" gradientUnits="userSpaceOnUse">
<stop stop-color="#A259FF"/>
<stop offset="1" stop-color="#7000FF"/>
</linearGradient>
<linearGradient id="paint1_linear_20_254" x1="706" y1="0.950684" x2="706" y2="136.05" gradientUnits="userSpaceOnUse">
<stop stop-color="#A259FF"/>
<stop offset="1" stop-color="#7000FF"/>
</linearGradient>
<linearGradient id="paint2_linear_20_254" x1="851" y1="214.5" x2="706" y2="132" gradientUnits="userSpaceOnUse">
<stop offset="0.0001" stop-color="#A259FF"/>
<stop offset="0.880275" stop-color="#7000FF"/>
</linearGradient>
</defs>
</svg>
